
<svg width="142.465625px" height="121.39999999999999px" xmlns="http://www.w3.org/2000/svg" viewBox="178.7671875 14.300000000000004 142.465625 121.39999999999999" style="background: none;" preserveAspectRatio="xMidYMid"><defs><linearGradient id="editing-glowing-gradient" x1="0.8146601955249185" x2="0.18533980447508147" y1="0.8885729807284856" y2="0.11142701927151444"><stop offset="0" stop-color="#67ff43"></stop><stop offset="1" stop-color="#90ffff"></stop></linearGradient><filter id="editing-glowing" x="-100%" y="-100%" width="300%" height="300%"><feGaussianBlur in="SourceGraphic" result="blur" stdDeviation="10"></feGaussianBlur><feMerge><feMergeNode in="blur"></feMergeNode><feMergeNode in="SourceGraphic"></feMergeNode></feMerge></filter></defs><g filter="url(#editing-glowing)"><g transform="translate(204.94502091407776, 97.14499855041504)"><path d="M42.62-26.56L42.62-26.56L42.62-26.56Q42.62 0.70 13.06 0.70L13.06 0.70L13.06 0.70Q8.32 0.70 0.51-0.45L0.51-0.45L7.68-38.27L7.68-38.27Q8.19-40.83 8.51-42.30L8.51-42.30L8.51-42.30Q18.24-43.01 22.56-43.01L22.56-43.01L22.56-43.01Q26.88-43.01 30.85-42.11L30.85-42.11L30.85-42.11Q34.82-41.22 37.44-39.23L37.44-39.23L37.44-39.23Q42.62-35.33 42.62-26.56ZM29.44-28.93L29.44-28.93L29.44-28.93Q29.44-38.46 22.59-38.46L22.59-38.46L21.95-38.46L21.95-38.46Q21.63-38.46 21.31-38.40L21.31-38.40L14.72-4.03L14.72-4.03Q14.98-3.90 15.23-3.90L15.23-3.90L15.74-3.90L15.74-3.90Q18.11-3.90 20.58-5.38L20.58-5.38L20.58-5.38Q23.04-6.85 24.96-9.86L24.96-9.86L24.96-9.86Q29.44-16.83 29.44-28.93ZM69.76-4.80L69.76-4.80L69.76-4.80Q69.76-9.28 71.55-18.24L71.55-18.24L62.08-18.24L58.56 0L45.18 0L53.31-42.24L66.82-42.24L63.10-23.36L72.58-23.36L76.10-42.24L89.60-42.24L89.60-42.24Q88.70-37.50 87.55-32.19L87.55-32.19L85.38-21.76L85.38-21.76Q82.94-9.60 82.94-4.29L82.94-4.29L82.94-4.29Q82.94-2.11 83.65-0.90L83.65-0.90L83.65-0.90Q80.45 1.28 76.70 1.28L76.70 1.28L76.70 1.28Q72.96 1.28 71.36-0.51L71.36-0.51L71.36-0.51Q69.76-2.30 69.76-4.80Z" fill="url(#editing-glowing-gradient)"></path></g></g><style>text {
  font-size: 64px;
  font-family: Arial Black;
  dominant-baseline: central;
  text-anchor: middle;
}</style></svg>