
<svg width="79.315625px" height="69.19999999999999px" xmlns="http://www.w3.org/2000/svg" viewBox="210.3421875 40.400000000000006 79.315625 69.19999999999999" style="background: none;" preserveAspectRatio="xMidYMid"><defs><linearGradient id="editing-glowing-gradient" x1="0.2966316784620999" x2="0.7033683215379001" y1="0.04322727117869957" y2="0.9567727288213004"><stop offset="0" stop-color="#25bbbb"></stop><stop offset="1" stop-color="#90ffff"></stop></linearGradient><filter id="editing-glowing" x="-100%" y="-100%" width="300%" height="300%"><feGaussianBlur in="SourceGraphic" result="blur" stdDeviation="1.5"></feGaussianBlur><feMerge><feMergeNode in="blur"></feMergeNode><feMergeNode in="SourceGraphic"></feMergeNode></feMerge></filter></defs><g filter="url(#editing-glowing)"><g transform="translate(228.1750087738037, 85.72500228881836)"><path d="M20.65-12.87L20.65-12.87L20.65-12.87Q20.65 0.34 6.32 0.34L6.32 0.34L6.32 0.34Q4.03 0.34 0.25-0.22L0.25-0.22L3.72-18.54L3.72-18.54Q3.97-19.78 4.12-20.49L4.12-20.49L4.12-20.49Q8.83-20.83 10.93-20.83L10.93-20.83L10.93-20.83Q13.02-20.83 14.94-20.40L14.94-20.40L14.94-20.40Q16.86-19.96 18.14-19.00L18.14-19.00L18.14-19.00Q20.65-17.11 20.65-12.87ZM14.26-14.01L14.26-14.01L14.26-14.01Q14.26-18.63 10.94-18.63L10.94-18.63L10.63-18.63L10.63-18.63Q10.48-18.63 10.32-18.60L10.32-18.60L7.13-1.95L7.13-1.95Q7.25-1.89 7.38-1.89L7.38-1.89L7.63-1.89L7.63-1.89Q8.77-1.89 9.97-2.60L9.97-2.60L9.97-2.60Q11.16-3.32 12.09-4.77L12.09-4.77L12.09-4.77Q14.26-8.15 14.26-14.01ZM33.79-2.33L33.79-2.33L33.79-2.33Q33.79-4.50 34.66-8.83L34.66-8.83L30.07-8.83L28.36 0L21.89 0L25.82-20.46L32.36-20.46L30.57-11.31L35.15-11.31L36.86-20.46L43.40-20.46L43.40-20.46Q42.97-18.17 42.41-15.59L42.41-15.59L41.35-10.54L41.35-10.54Q40.18-4.65 40.18-2.08L40.18-2.08L40.18-2.08Q40.18-1.02 40.52-0.43L40.52-0.43L40.52-0.43Q38.97 0.62 37.15 0.62L37.15 0.62L37.15 0.62Q35.34 0.62 34.56-0.25L34.56-0.25L34.56-0.25Q33.79-1.12 33.79-2.33Z" fill="url(#editing-glowing-gradient)"></path></g></g><style>text {
  font-size: 64px;
  font-family: Arial Black;
  dominant-baseline: central;
  text-anchor: middle;
}</style></svg>